<svg xmlns="http://www.w3.org/2000/svg" width="1181.6071" height="256.867" viewBox="0 0 1181.607 256.867" preserveAspectRatio="xMinYMid">
  <path d="M656.08769026 32.10231229h-25.68133269c-1.77333329 0-3.20933325-1.43731997-3.20933325-3.21065326V3.21167301c0-1.7733333 1.43599996-3.21065326 3.20933325-3.21065326h25.6813327c1.77333328 0 3.21066658 1.43731997 3.21066658 3.21065326v25.67998602c0 1.7733333-1.4373333 3.21065326-3.21066659 3.21065326zM709.78908892 56.20501835c-1.2906933 0-2.33789327 1.04659997-2.33789327 2.33593327v36.1913591c0 1.29066663 1.04719997 2.33787994 2.33789327 2.33787994h15.0429063c1.2906933 0 2.33599993-1.0472133 2.33599993-2.33787994V76.05655119c0-.62933332.51189332-1.14062664 1.14259998-1.1406133h28.95499927c.62939999 0 1.1406933.51127998 1.1406933 1.1406133v105.48427203c0 .63065331-.51129331 1.1406133-1.1406933 1.1406133h-14.4453063c-1.29059997 0-2.33789328 1.04855998-2.33789328 2.33789328v13.23240233c0 1.29066797 1.0472933 2.33788661 2.33789328 2.33788661h53.50974533c1.29079996 0 2.33799994-1.04721864 2.33799994-2.3378866V185.0193298c0-1.2893333-1.04719998-2.33789328-2.33799994-2.33789328h-14.44523964c-.63070665 0-1.14259998-.50995999-1.14259998-1.1406133V76.05655119c0-.62933332.51189333-1.14062664 1.14259998-1.1406133h28.95123927c.63186665 0 1.14239997.51127998 1.14239997 1.1406133v18.67575953c0 1.29066663 1.04533331 2.33787994 2.33599995 2.33787994h15.04493295c1.29066664 0 2.33786661-1.0472133 2.33786661-2.33787994v-36.1913591c0-1.2893333-1.04719997-2.33593327-2.3378666-2.33593327zm346.68747133 0c-1.29066663 0-2.33599994 1.04526664-2.33599994 2.33593327v12.62693302c0 1.29066664 1.04533331 2.33789328 2.33599994 2.33789328h13.613333c.64533331 0 1.16786664.52458665 1.16786664 1.16991997v107.44519198c0 .64399998-.52253333 1.1679733-1.16786664 1.1679733h-12.60546635c-1.29079997 0-2.33799995 1.04526664-2.33799995 2.33593461v12.62693435c0 1.29066797 1.04719998 2.33788661 2.33799995 2.33788661h49.0801321c1.2905333 0 2.33786661-1.04721864 2.33786661-2.3378866v-12.62693436c0-1.29066797-1.0473333-2.3359346-2.3378666-2.3359346h-12.6055997c-.64533331 0-1.16799996-.52397333-1.16799996-1.16797331v-30.36129658c0-21.77062878 13.85226632-37.57026972 32.93759917-37.57026972 15.1346663 0 18.23439955 9.78518642 18.23439955 24.47849538v59.58391318c0 1.29066797 1.04719997 2.33788661 2.3378666 2.33788661h32.96866585c1.29066663 0 2.3378666-1.04721864 2.3378666-2.3378866v-12.62693436c0-1.29066797-1.04719997-2.3359346-2.3378666-2.3359346h-12.40226636c-.64533332 0-1.16799997-.52397333-1.16799997-1.16797331v-47.88275214c0-27.02798732-11.82253304-40.16988033-36.14253243-40.16988033-16.28666626 0-28.95039928 8.74350645-35.70906577 18.38082621-.33066666.47333332-1.05666664.25312-1.05666664-.32421332V58.54095162c0-1.29066663-1.04719998-2.33593327-2.33786661-2.33593327zM885.87309785 94.0682574c-30.64799923 0-52.0527987 22.39939944-52.0527987 54.46869597 0 31.56128322 23.16213276 54.47063331 55.07413196 54.47063331 20.92399948 0 35.11199912-10.05702908 39.61333234-13.73435432.85999998-.70266932 1.07266664-1.91090129.52746666-2.87890126l-7.40239982-13.13280234c-.42399999-.75333332-1.42759996-.95549331-2.09959994-.41016-3.73599991 3.04000126-14.92573297 11.0410144-29.4297326 11.0410144-15.52666628 0-31.70773254-9.66201443-33.95706582-31.16598989-.07066667-.67465332.47559999-1.2792933 1.15439997-1.2792933h71.00973156c1.16399997 0 2.14146661-.86281331 2.2694666-2.02147995.2148-1.95199995.5-4.84733455.5-6.5273345 0-29.6613086-17.74559956-48.83002812-45.2069322-48.83002812zm114.58973047 0c-31.39866588 0-55.07413195 23.50457275-55.07413195 54.66985597 0 26.96797666 19.26599951 54.26752264 56.0819986 54.26752264 20.52399948 0 34.96853245-10.31030774 40.86719897-15.34763828.82799998-.70666665 1.03719998-1.87707995.53319999-2.84374793l-6.30466651-12.09569436c-.67199998-1.29198664-2.33039994-1.66994663-3.48239991-.77929332-6.37999984 4.93066788-16.74466625 11.95312104-30.8086659 11.95312104-20.45999949 0-34.74999913-14.6219743-34.74999913-35.55660311 0-21.02664348 13.47906633-35.15232312 33.54306583-35.15232312 8.73999978 0 20.85146614 3.67609324 20.85146614 10.58007973v5.81054786c0 1.2906533 1.04919998 2.33787994 2.33986661 2.33787994h14.84373296c1.29066664 0 2.33786661-1.04722664 2.33786661-2.33787994v-11.24804106c0-8.1826798-5.1637332-14.80433296-14.92773296-19.15233285-7.17719982-3.19598659-16.91346624-5.1054532-26.05079935-5.1054532zm-114.99213046 17.7030929c12.90799968 0 21.7897328 9.2343731 23.1230661 23.73436073.06133332.66933332-.48426666 1.25975997-1.15626665 1.25975997h-49.02546544c-.73453331 0-1.29879996-.69743998-1.13079997-1.4120933 3.39733325-14.4173343 14.22013298-23.5820274 28.18946596-23.5820274z" fill="#5abe19"/>
  <path d="M3.20898659-.00000691C1.43565329-.00000691 0 1.43759305 0 3.21092634v194.21463648c0 1.77332796 1.4356533 3.21093592 3.20898659 3.21093592h25.68163935c1.7733333 0 3.2109466-1.43760796 3.2109466-3.21093592V3.21092634c0-1.77333329-1.4376133-3.21093325-3.2109466-3.21093325zm127.09961015 54.17181198c-42.24133228.06-74.18953148 33.34114583-74.13085148 74.3397728.05733333 40.99861765 32.09850587 74.19077815 74.33983814 74.13077815 42.20533228-.05870666 74.18953148-33.33918716 74.13085148-74.3378048-.05733333-40.99862698-32.13450586-74.19139948-74.33983814-74.13274615zm164.52148922 0c-42.24133227.06-74.18819814 33.34114583-74.13086481 74.3397728.05733333 40.99861765 32.09850586 74.19077815 74.33985147 74.13077815 14.42533298-.02 27.62125265-3.96441457 38.78123903-10.73240773.54268-.32933866 1.2436533.05030667 1.20898664.68358932-.65599998 11.8199877-9.2966131 32.11910453-39.863279 32.11910453-13.23466634 0-26.69657267-3.52044658-39.75390568-11.20311839-1.26666663-.74532931-2.87343992-.57185865-3.91210656.46680132l-18.8339862 18.83396753c-1.0373333 1.0373293-.92413331 2.78876793.25586666 3.66210658 22.01331945 16.28398119 46.5443455 20.41716563 62.29099844 20.39450564 49.64267876-.06929335 71.95117154-32.15455202 71.95118487-72.28116168l.008-125.17175154c0-1.77331995-1.43698663-3.21093325-3.20898659-3.21093325h-25.68945269c-1.77333329 0-3.21094658 1.4376133-3.21094658 3.21093325v4.83985322c0 .62531998-.67039999.99718664-1.20507997.67186665-11.22399972-6.81599983-24.50866606-10.7739064-39.02733236-10.7539064zm254.5801003 2.00782661c-21.41739946 0-37.4424924 8.73189312-47.7011988 24.78121272-.328.51333332-1.06159998.47874665-1.34959997-.05853333-9.6266931-18.00530622-26.42189267-24.59566606-40.89259898-24.59566606-14.44669297 0-24.95319937 5.11363988-34.75579913 14.6816263-.50949332.496-1.36139996.16378667-1.36139996-.54687998V59.41405827c0-1.77199996-1.43759997-3.20897325-3.21089326-3.20897325h-25.68170602c-1.77199996 0-3.20889325 1.4369733-3.20889325 3.20897325v138.01345522c0 1.77333728 1.4368933 3.20898525 3.20889325 3.20898525h25.69339936c1.76670662 0 3.19919992-1.43254797 3.19919992-3.19921592v-69.06046494c0-27.03864066 10.83859973-41.52541363 28.89459927-41.55074696 18.05730622-.02533334 28.88859928 14.5123863 28.88859928 41.67770696v68.9237356c0 1.7733373 1.43759997 3.20898526 3.21099992 3.20898526h25.68159936c1.77330662 0 3.20899992-1.43564797 3.20899992-3.20898525v-64.49406906c0-27.03730732 10.8359064-46.2323735 28.89450594-46.2323735 18.05869289 0 28.88869261 14.6371063 28.88869261 41.67574695l.01066667 69.0506956c0 1.7733373 1.43759997 3.20898526 3.21090659 3.20898526h25.65429269c1.77330662 0 3.21090659-1.43698796 3.21090659-3.20898525l.02-77.1210034c0-56.17861194-35.75170578-64.1268784-53.70899866-64.1268784zm80.99610465.02546667c-1.77339996 0-3.20899992 1.43563996-3.20899992 3.20897325V197.4255735c0 1.77332795 1.43559996 3.21093592 3.20899992 3.21093592h25.68159935c1.77330663 0 3.2109066-1.43760797 3.2109066-3.21093592V59.4139916c0-1.77331995-1.43759997-3.20897325-3.2109066-3.20897325zM130.35547674 86.27536426c24.62531939-.03466666 40.154879 20.35474616 40.18554566 42.13473362.02933334 21.78130879-15.37770628 42.08637761-40.068359 42.12104428-24.91199937.03466666-40.154879-20.22778883-40.185559-42.00776428-.03066666-21.7813208 15.28703963-42.21334695 40.06837234-42.24801362zm164.51952922 0c24.62533272-.03466666 40.156839 20.35474616 40.18749233 42.13473362.03066667 21.78130879-15.37901295 42.08637761-40.068359 42.12104428-24.91199938.03466666-40.15682566-20.22778883-40.18749233-42.00776428-.03066666-21.7813208 15.28835962-42.21334695 40.068359-42.24801362z" fill="#ffffff"/>
</svg>
