<svg version="1.1" id="레이어_1" xmlns="http://www.w3.org/2000/svg" x="0" y="0" viewBox="0 0 169 49" style="enable-background:new 0 0 169 49" xml:space="preserve"><style>.st0{fill:#fff}</style><path class="st0" d="M41.7 3.8H54v2.4h-4.7V19h-2.6V6.2h-5V3.8zM55.1 9c1.1-1.1 2.6-1.7 4.1-1.7 1.5 0 2.8.5 3.8 1.4 1.1 1 1.8 2.1 2 3.5.2.7.2 1.3 0 2h-9.2c.1.8.5 1.5 1.2 2 .6.5 1.4.8 2.2.8 1.2 0 2.4-.5 3.2-1.5l2.3.6c-.5 1-1.2 1.7-2.3 2.3-1 .5-2 .8-3.2.8-3.2.1-5.9-2.4-6-5.6v-.4c.1-1.6.7-3 1.9-4.2zm.7 3.3h6.8c-.1-.8-.5-1.5-1.1-2s-1.4-.8-2.3-.8c-.9 0-1.6.3-2.2.8-.7.5-1 1.2-1.2 2zM68.2 9c1.1-1.1 2.6-1.7 4.2-1.7 2.4 0 4.5 1.5 5.4 3.7l-2.2.7c-.3-.7-.8-1.2-1.3-1.6-.6-.4-1.2-.5-1.9-.5-1 0-1.8.3-2.5 1-.7.8-1 1.6-1 2.7 0 1 .3 1.8 1 2.5.7.8 1.5 1.1 2.5 1.1.7 0 1.3-.2 1.9-.5.6-.4 1-1 1.3-1.6l2.3.7c-.5 1.1-1.2 2-2.2 2.7-1 .7-2 1-3.3 1-3.2.1-5.9-2.4-6-5.6v-.4c0-1.6.7-3 1.8-4.2zm11.3-5.2H82V9a4.6 4.6 0 0 1 3.6-1.7c1.4 0 2.5.4 3.4 1.3 1 .8 1.5 2 1.5 3.3V19H88v-6.4c0-.9-.3-1.6-.9-2.2-.5-.5-1.2-.8-2-.8-.9 0-1.6.4-2.2 1-.6.7-.9 1.5-.9 2.5v6h-2.5V3.7v.1zm12.9 10.1v-2.2h8v2.2h-8zm8.7-10.1h2.8l4.4 13.6 4.5-13.6h2.8L110.5 19h-4.3l-5.1-15.2zM117 9c1.1-1.1 2.6-1.7 4.2-1.7 1.5 0 2.8.5 3.8 1.4 1.1 1 1.8 2.1 2 3.5.2.7.2 1.3 0 2h-9c.1.8.5 1.5 1.2 2 .6.5 1.4.8 2.2.8 1.3.1 2.5-.5 3.3-1.5l2.2.6c-.5 1-1.2 1.7-2.3 2.3-1 .5-2 .8-3.2.8-3.2.1-5.9-2.4-6-5.6v-.4c.1-1.6.7-3 1.9-4.2h-.3zm.8 3.3h6.8c-.1-.8-.5-1.5-1.1-2s-1.4-.8-2.3-.8-1.6.3-2.2.8c-.7.5-1 1.2-1.2 2zm11-4.8h2.5v1.9c.4-.8.9-1.3 1.5-1.6.6-.3 1.3-.5 2-.5l1 .1v2.7l-1.3-.2c-.7 0-1.4.2-2 .7-.8.5-1.2 1.3-1.2 2.6V19H129V7.5h-.2zm8.3 3.3c0-1.1.5-2 1.4-2.6s2-1 3.4-1c1.6 0 3.1.5 4.4 1.3v2.4c-1.3-.9-2.8-1.4-4.4-1.5-.6 0-1.1.1-1.6.4-.4.2-.6.6-.6 1v.3l.3.3.4.2c.4.2.8.3 1.2.4.5.1.9.2 1.4.3 1.3.3 2.3.8 3 1.3.6.6.8 1.4.8 2.2 0 .8-.2 1.4-.7 2-.5.5-1 .9-1.7 1.1s-1.4.3-2.2.3c-1.7 0-3.3-.5-4.8-1.5v-2.5c1.4 1.1 3.1 1.7 4.8 1.8.5 0 1-.1 1.4-.3.5-.3.7-.6.7-1 0-.3-.3-.7-.7-.9-.5-.3-1.3-.5-2.3-.7-1.1-.2-2.2-.6-3.1-1.2-.7-.5-1-1.2-1.1-2.1zM150 9c1.1-1.1 2.6-1.7 4.1-1.7 1.5 0 2.8.5 3.8 1.4 1.1 1 1.8 2.1 2 3.5.2.7.2 1.3 0 2h-9.2c.1.8.5 1.5 1.2 2 .6.5 1.4.8 2.2.8 1.3.1 2.5-.5 3.3-1.5l2.2.6c-.5 1-1.2 1.7-2.3 2.3-1 .5-2 .8-3.2.8-3.2.1-5.9-2.4-6-5.6v-.4c.1-1.6.7-3 1.9-4.2zm.7 3.3h6.8c-.1-.8-.5-1.5-1.1-2s-1.4-.8-2.3-.8c-.9 0-1.6.3-2.2.8-.7.5-1 1.2-1.2 2zM45 26.8c1-.8 2.3-1.3 3.7-1.3s2.6.4 3.6 1.3c1 .8 1.5 2 1.5 3.4 0 1.3-.7 2.6-2 4l-4.1 4.4h6.2V41H43.8v-1.8l6.2-6.6c.8-.9 1.3-1.6 1.3-2.3v-.1c0-.7-.3-1.3-.7-1.7-.5-.5-1.1-.7-1.9-.7-.7 0-1.4.2-1.9.7-.5.6-.7 1.2-.8 2h-2.5c0-1.6.6-2.8 1.5-3.7zm12.3.9c1-1.4 2.7-2.2 4.5-2.2 2 0 3.4.7 4.5 2.2 1.2 1.6 1.8 3.6 1.7 5.6.1 2-.5 4-1.7 5.7-1.1 1.4-2.7 2.2-4.5 2.1-2 0-3.4-.7-4.5-2-1.2-1.7-1.7-3.7-1.6-5.7-.1-2 .4-4 1.6-5.7zm1.9 9.5c.5.9 1.5 1.5 2.6 1.5s2.1-.5 2.7-1.5c.7-1 1-2.3 1-3.9.1-1.4-.3-2.7-1-3.9-.6-1-1.6-1.5-2.7-1.5s-2.1.5-2.7 1.5c-.6 1-1 2.4-1 4s.4 2.9 1 3.8h.1zm12.2-10.4c1-.8 2.2-1.3 3.6-1.3s2.6.4 3.6 1.3c1 .8 1.5 2 1.5 3.4 0 1.3-.7 2.6-2 4L74 38.5h6.2V41H70v-1.8l6.2-6.6c.8-.9 1.2-1.6 1.3-2.3v-.1c0-.7-.3-1.3-.8-1.7-.4-.5-1-.7-1.8-.7s-1.4.2-2 .7c-.4.6-.7 1.2-.7 2h-2.5c0-1.6.6-2.8 1.6-3.7h.1zm12.4 0c1-.8 2.2-1.3 3.6-1.3s2.6.4 3.6 1.3c1 .8 1.5 2 1.5 3.4 0 1.3-.7 2.6-2 4l-4.1 4.4h6.2V41H82.5v-1.8l6.2-6.6c.8-.9 1.2-1.6 1.3-2.3v-.1c0-.7-.3-1.3-.8-1.7-.4-.5-1-.7-1.8-.7s-1.4.2-1.9.7c-.5.6-.8 1.2-.8 2h-2.5c0-1.6.6-2.8 1.6-3.7z"/><linearGradient id="SVGID_1_" gradientUnits="userSpaceOnUse" x1="2.808" y1="33.037" x2="32.708" y2="24.037" gradientTransform="matrix(1 0 0 -1 0 49.89)"><stop offset="0" style="stop-color:#fd7867"/><stop offset=".3" style="stop-color:#fd7867;stop-opacity:0"/><stop offset=".6" style="stop-color:#fd7867;stop-opacity:0"/><stop offset="1" style="stop-color:#fd7867"/></linearGradient><path d="M14.7 26.9c8.3 2.2 16 2 16.5.6l1.8-8.1c-.5 1.5-6.8 1.7-16-.7C7.6 16.3 2.1 13 2.5 11.5L0 19.2c-.4 1.5 6.4 5.7 14.7 7.7" style="fill:url(#SVGID_1_)"/><path class="st0" d="M13.4 42.8H5c-.4 0-.7-.2-.8-.6 0-.1 0-.3.1-.4l12.3-38c.1-.5.5-.8 1-.8H26c.5 0 .8.5.7 1L14.4 42c-.1.5-.5.8-1 .8z"/><path d="M19 10.4C10.7 8 3.3 8.4 2.8 9.9l-2.5 8c.4-1.5 7.2-1.6 16.4.8 9.5 2.5 15.1 5.8 14.7 7.3l2.1-8.1c.4-1.6-6-5.5-14.5-7.5" style="fill:#fd7867"/></svg>